<svg width="16" height="16" viewBox="0 0 16 16" fill="none" xmlns="http://www.w3.org/2000/svg">
<g id="link-svgrepo-com 1" clip-path="url(#clip0_1544_1145)">
<g id="Group">
<path id="Vector" d="M14.7666 1.23338C13.9713 0.438033 12.9138 0 11.7891 0C10.6643 0 9.60684 0.438033 8.81152 1.23338L5.4895 4.5554L6.1901 5.256L9.51208 1.93398C10.1203 1.32579 10.9289 0.9908 11.7891 0.9908C12.6492 0.9908 13.4578 1.32579 14.066 1.93398C14.6742 2.54216 15.0092 3.35079 15.0092 4.2109C15.0092 5.07105 14.6742 5.87967 14.066 6.48786L10.744 9.80988L11.4446 10.5105L14.7666 7.18845C15.5619 6.39314 16 5.33566 16 4.2109C16 3.08614 15.5619 2.0287 14.7666 1.23338Z" fill="#ABACB1"/>
<path id="Vector_2" d="M6.48786 14.066C5.87967 14.6742 5.07105 15.0092 4.21093 15.0092C3.35082 15.0092 2.54219 14.6742 1.93398 14.066C1.32576 13.4578 0.9908 12.6492 0.9908 11.7891C0.9908 10.929 1.32576 10.1203 1.93394 9.51215L5.25596 6.19013L4.55537 5.48953L1.23335 8.81155C0.438033 9.60687 0 10.6643 0 11.7891C0 12.9139 0.438033 13.9713 1.23335 14.7666C2.0287 15.562 3.08614 16 4.2109 16C5.33566 16 6.39314 15.562 7.18845 14.7666L10.5105 11.4446L9.80988 10.744L6.48786 14.066Z" fill="#ABACB1"/>
<path id="Vector_3" d="M10.6243 4.67499L11.3249 5.37558L5.3757 11.3248L4.67511 10.6242L10.6243 4.67499Z" fill="#ABACB1"/>
</g>
</g>
<defs>
<clipPath id="clip0_1544_1145">
<rect width="16" height="16" fill="white"/>
</clipPath>
</defs>
</svg>
