<svg width="42" height="44" viewBox="0 0 42 44" fill="none" xmlns="http://www.w3.org/2000/svg">
<path d="M41.5165 17.1796C40.9393 17.7892 40.0889 17.7892 39.8094 17.7892C39.2911 17.7892 38.6502 17.7037 37.732 17.5118C37.0107 17.3611 36.3896 17.2108 35.842 17.0784C34.7646 16.8178 33.986 16.6293 33.253 16.6293C32.8399 16.6293 32.0861 16.8076 31.2878 16.9965C30.0449 17.2906 28.4982 17.6565 27.0022 17.6565C25.4918 17.6565 23.9019 17.5395 22.9002 17.4493C22.5675 18.6917 21.776 20.7404 19.9793 22.207C17.5365 24.2005 15.7255 25.0899 15.6495 25.1267C15.1856 25.3521 14.6277 25.234 14.2962 24.8399C13.9647 24.4462 13.945 23.8782 14.2485 23.4626C14.2585 23.4485 15.4794 21.7293 15.4325 19.7972C15.4139 19.0286 15.3859 18.4263 15.3573 17.9676C13.8358 18.4144 11.2451 19.4131 9.90878 21.2931C7.8844 24.1407 7.05392 28.5248 7.27637 29.9629C7.50796 31.4614 7.53567 31.4614 8.24946 31.4614C9.80468 31.4614 11.1112 31.5248 12.5828 32.3228C13.8846 33.0285 14.6015 33.8006 14.6788 33.8864C14.9708 34.2094 15.0485 34.6717 14.8782 35.0718C14.7079 35.4721 14.3204 35.7379 13.8843 35.7534C13.4637 35.7691 12.1908 35.8747 11.3728 36.1705C10.9384 36.3276 10.5642 36.5114 10.2022 36.6893C9.62327 36.9739 9.07635 37.2426 8.43836 37.3177C8.23089 37.3421 8.01787 37.3541 7.81624 37.3503C7.58106 37.8945 7.1808 38.5432 6.5076 39.0579C5.99229 39.4519 5.468 39.695 5.00542 39.9093C4.43738 40.1727 3.98858 40.3807 3.64405 40.8063C2.74106 41.9217 2.43802 43.1311 2.43517 43.1432C2.31713 43.6262 1.8926 43.9763 1.39407 43.9988C1.37684 43.9997 1.35946 44 1.34224 44C0.864229 44 0.435355 43.6998 0.279414 43.2455C0.209158 43.0416 -0.382997 41.172 0.405095 38.4355C0.686867 37.4572 1.12338 36.6104 1.54536 35.7911C2.23204 34.4588 2.8251 33.3081 2.57628 31.8982C1.40665 25.2712 1.48739 19.8829 2.81611 15.8835C4.88213 9.66344 9.88362 6.19782 10.8653 5.56648C11.3522 5.25297 11.7906 4.97721 12.16 4.74801C11.8174 4.47613 11.3819 4.19053 10.8642 3.97132C9.68589 3.47233 9.19065 3.33595 9.05343 3.30342C9.0446 3.30372 9.03606 3.30372 9.02752 3.30372C8.53843 3.30386 8.16243 2.98215 8.01937 2.50703C7.87077 2.01371 8.14685 1.48414 8.5919 1.22226C8.67654 1.17227 10.7008 0 13.3685 0C13.9191 0 14.466 0.0502869 14.994 0.149518C16.6392 0.458849 17.802 0.920982 18.9264 1.36774C20.0243 1.80406 21.0613 2.2162 22.6096 2.54106C23.3618 2.69893 24.0544 2.82069 24.7242 2.93858C27.0286 3.34386 29.0186 3.69392 31.9941 5.20746C35.8775 7.18312 38.0611 9.34471 38.1429 11.2937C38.1601 11.7045 38.1511 12.0715 38.1158 12.3942C38.4792 12.5752 38.9208 12.8039 39.3669 13.0567C41.1829 14.0856 41.9445 14.8561 41.9953 15.7161C42.0305 16.3144 41.8694 16.8067 41.5165 17.1796Z" fill="#0057FF"/>
</svg>
