<svg width="84" height="84" viewBox="0 0 84 84" fill="none" xmlns="http://www.w3.org/2000/svg">
<g filter="url(#filter0_d_68_2657)">
<rect x="10" width="64" height="64" rx="32" fill="#0057FF"/>
</g>
<path d="M49.2187 23.4385L48.5509 23.6229L49.0605 23.1491C49.1301 23.0843 50.8124 21.5586 54.7855 21.2106C54.9779 21.1938 55.1749 21.1823 55.3724 21.1717C56.7262 16.5533 56.8665 13 56.8665 13C56.8665 13 49.9398 14.5305 43.5661 19.4288C44.1057 23.8435 42.8061 25.9851 42.7412 26.0884L42.3692 26.6795L42.4325 25.9807C42.6697 23.3596 42.4555 21.6058 42.2035 20.5382C41.041 21.5403 39.9159 22.662 38.8767 23.9176C38.8319 23.9717 38.7884 24.0265 38.7441 24.0811C39.4858 28.9049 38.0706 31.2368 38.0028 31.3446L37.6308 31.9357L37.6939 31.2372C37.9317 28.6088 37.7158 26.8528 37.4629 25.7863C33.2736 31.8339 31.9636 38.7416 31.5652 41.9525L24.9667 49.9243L29.1615 48.0859L33.1339 43.2867C36.2528 42.309 42.9625 39.7085 48.1622 34.2318C47.7154 34.2066 47.1604 34.2081 46.4904 34.2668C45.3939 34.3628 44.1795 34.5936 42.8812 34.9524L42.2134 35.137L42.7228 34.663C42.7924 34.5982 44.4747 33.0721 48.4478 32.7241C48.8021 32.6931 49.1678 32.6761 49.5386 32.6661C52.1135 29.497 53.7878 25.9493 54.8742 22.7479C54.377 22.6973 53.7014 22.6764 52.8281 22.7529C51.7316 22.8491 50.5172 23.0797 49.2187 23.4385ZM33.7885 41.8894L31.9232 42.154L43.8745 28.212L33.7885 41.8894Z" fill="white"/>
<defs>
<filter id="filter0_d_68_2657" x="0" y="0" width="84" height="84" filterUnits="userSpaceOnUse" color-interpolation-filters="sRGB">
<feFlood flood-opacity="0" result="BackgroundImageFix"/>
<feColorMatrix in="SourceAlpha" type="matrix" values="0 0 0 0 0 0 0 0 0 0 0 0 0 0 0 0 0 0 127 0" result="hardAlpha"/>
<feOffset dy="10"/>
<feGaussianBlur stdDeviation="5"/>
<feComposite in2="hardAlpha" operator="out"/>
<feColorMatrix type="matrix" values="0 0 0 0 0 0 0 0 0 0 0 0 0 0 0 0 0 0 0.1 0"/>
<feBlend mode="normal" in2="BackgroundImageFix" result="effect1_dropShadow_68_2657"/>
<feBlend mode="normal" in="SourceGraphic" in2="effect1_dropShadow_68_2657" result="shape"/>
</filter>
</defs>
</svg>
